#!OML:ASF H:\Punching\Project 1\Capture day 1\Session 1\female.ASF
:FULLY-SPECIFIED
:DEGREES
996
root 0.949122 15.6171 7.50884 13.6587 -3.42715 0.531855
lowerback -1.27322 0.425307 -3.00192
upperback -5.30371 0.534618 0.372094
thorax -4.79782 0.404865 2.05006
lowerneck -11.3107 -7.47035 -0.724885
upperneck 26.1607 -11.3944 3.21756
head 10.4726 -4.95519 -0.151599
rclavicle -6.61114e-015 -1.26228e-014
rhumerus 1.42748 31.9211 -91.2727
rradius 103.077
rwrist -20.0528
rhand -11.552 -2.96726
rfingers 7.12502
rthumb 14.4887 -32.4414
lclavicle -6.61114e-015 -1.26228e-014
lhumerus -15.5164 -49.6257 95.179
lradius 119.787
lwrist -7.09763
lhand -27.051 4.54758
lfingers 7.12502
lthumb -0.469366 34.5268
rfemur -36.0984 7.41523 -1.41534
rtibia 23.6722
rfoot 8.61006 -19.9077
rtoes -0.506938
lfemur 1.29647 -8.81422 -14.1967
ltibia -1.59028e-014
lfoot -10.8048 21.1656
ltoes -8.28233
997
root 0.849885 15.5903 7.57021 13.6417 -3.23036 0.660328
lowerback -1.18976 0.348989 -3.07808
upperback -5.33795 0.427517 0.360335
thorax -4.876 0.356077 2.08324
lowerneck -11.2354 -7.55722 -0.891321
upperneck 26.2518 -11.4971 3.24671
head 10.5067 -5.01372 -0.126854
rclavicle -1.88845e-015 6.95746e-016
rhumerus 2.17744 32.3491 -90.2549
rradius 104.364
rwrist -19.6572
rhand -11.8987 -2.80726
rfingers 7.12502
rthumb 14.1546 -32.3051
lclavicle -1.88845e-015 6.95746e-016
lhumerus -15.556 -50.3916 95.4136
lradius 120.229
lwrist -7.15486
lhand -27.1501 4.37928
lfingers 7.12502
lthumb -0.565086 34.3583
rfemur -36.1332 6.65096 -1.09587
rtibia 24.1561
rfoot 8.66187 -18.8016
rtoes -1.69697
lfemur 1.55901 -8.91194 -13.9477
ltibia 3.18055e-015
lfoot -11.0133 21.1412
ltoes -8.80214
998
root 0.747915 15.56 7.63357 13.622 -3.03823 0.800767
lowerback -1.1021 0.266097 -3.16164
upperback -5.38247 0.310622 0.340969
thorax -4.96667 0.30295 2.11327
lowerneck -11.1492 -7.6321 -1.05554
upperneck 26.365 -11.5837 3.2692
head 10.5462 -5.06512 -0.102675
rclavicle -1.20824e-015 -3.8266e-015
rhumerus 2.91547 32.7429 -89.1544
rradius 105.534
rwrist -19.1504
rhand -12.1943 -2.62277
rfingers 7.12502
rthumb 13.8698 -32.1403
lclavicle -1.20824e-015 -3.8266e-015
lhumerus -15.7198 -51.0652 95.6568
lradius 120.641
lwrist -7.15983
lhand -27.2464 4.23867
lfingers 7.12502
lthumb -0.658031 34.2174
rfemur -36.1761 5.65987 -0.623289
rtibia 24.8349
rfoot 8.19297 -17.4553
rtoes -3.30293
lfemur 1.83479 -9.0097 -13.7016
ltibia 9.54166e-015
lfoot -11.2316 21.1189
ltoes -9.32906
999
root 0.6437 15.527 7.69895 13.5994 -2.84621 0.956656
lowerback -1.00567 0.17525 -3.25204
upperback -5.439 0.181783 0.313331
thorax -5.07414 0.244499 2.13929
lowerneck -11.0551 -7.69499 -1.21747
upperneck 26.5007 -11.6536 3.28328
head 10.5915 -5.10938 -0.0797426
rclavicle 4.31425e-015 -8.84592e-015
rhumerus 3.63366 33.0954 -87.9819
rradius 106.573
rwrist -18.5344
rhand -12.4104 -2.40892
rfingers 7.12502
rthumb 13.6615 -31.9406
lclavicle 4.31425e-015 -8.84592e-015
lhumerus -16.008 -51.6438 95.9131
lradius 121.024
lwrist -7.13409
lhand -27.3407 4.15969
lfingers 7.12502
lthumb -0.749126 34.1381
rfemur -36.2416 4.48474 -0.03197
rtibia 25.7194
rfoot 7.20224 -15.9429
rtoes -5.2683
lfemur 2.12241 -9.11294 -13.4638
ltibia 3.18055e-015
lfoot -11.4613 21.0994
ltoes -9.84988
1000
root 0.537513 15.4921 7.76579 13.5799 -2.65955 1.12365
lowerback -0.924981 0.0788307 -3.34066
upperback -5.49396 0.0453287 0.275716
thorax -5.17028 0.181831 2.15465
lowerneck -10.956 -7.7466 -1.37431
upperneck 26.6415 -11.7084 3.29377
head 10.6371 -5.14678 -0.0567694
rclavicle -1.77664e-015 4.27387e-015
rhumerus 4.34977 33.4131 -86.7338
rradius 107.48
rwrist -17.8636
rhand -12.5695 -2.20667
rfingers 7.12502
rthumb 13.5081 -31.7486
lclavicle -1.77664e-015 4.27387e-015
lhumerus -16.3854 -52.1207 96.1552
lradius 121.369
lwrist -7.1047
lhand -27.4347 4.14632
lfingers 7.12502
lthumb -0.839954 34.1244
rfemur -36.3584 3.23948 0.618087
rtibia 26.7993
rfoot 5.76541 -14.4192
rtoes -7.24515
lfemur 2.41394 -9.21503 -13.2309
ltibia -1.27222e-014
lfoot -11.7004 21.0835
ltoes -10.3449
1001
root 0.429878 15.4566 7.83368 13.5652 -2.47748 1.29507
lowerback -0.863491 -0.0237289 -3.41661
upperback -5.53815 -0.0989356 0.227614
thorax -5.24337 0.113975 2.15264
lowerneck -10.8764 -7.78617 -1.51162
upperneck 26.7859 -11.7482 3.29456
head 10.6855 -5.17614 -0.0392888
rclavicle -5.03484e-015 1.83876e-015
rhumerus 5.06417 33.6895 -85.4191
rradius 108.254
rwrist -17.2063
rhand -12.6451 -2.01792
rfingers 7.12502
rthumb 13.4353 -31.5646
lclavicle -5.03484e-015 1.83876e-015
lhumerus -16.8165 -52.4884 96.3542
lradius 121.672
lwrist -7.08625
lhand -27.4964 4.11526
lfingers 7.12502
lthumb -0.89951 34.0931
rfemur -36.5425 2.03728 1.2682
rtibia 28.0457
rfoot 4.03408 -13.0088
rtoes -8.87571
lfemur 2.70516 -9.31501 -12.9982
ltibia 0
lfoot -11.9434 21.0744
ltoes -10.8137
1002
root 0.321355 15.4216 7.902 13.557 -2.30001 1.46002
lowerback -0.813258 -0.131925 -3.46778
upperback -5.57352 -0.25009 0.173662
thorax -5.30012 0.0410293 2.13114
lowerneck -10.8149 -7.81385 -1.62979
upperneck 26.9302 -11.7726 3.28565
head 10.7353 -5.19749 -0.0270477
rclavicle -8.90648e-015 -6.26172e-015
rhumerus 5.7642 33.9328 -84.042
rradius 108.896
rwrist -16.631
rhand -12.6465 -1.86283
rfingers 7.12502
rthumb 13.4339 -31.4096
lclavicle -8.90648e-015 -6.26172e-015
lhumerus -17.3031 -52.7455 96.5158
lradius 121.931
lwrist -7.09514
lhand -27.5305 4.08779
lfingers 7.12502
lthumb -0.932498 34.0655
rfemur -36.7993 0.972954 1.87614
rtibia 29.4119
rfoot 2.19143 -11.8119
rtoes -9.93727
lfemur 2.99114 -9.41006 -12.7559
ltibia -6.36111e-015
lfoot -12.1884 21.0744
ltoes -11.2403
